<svg width="17" height="17" viewBox="0 0 17 17" fill="none" xmlns="http://www.w3.org/2000/svg">
<path d="M16.6 0.4C16.2786 0.165112 15.8972 0.0263899 15.5 0C15.0499 0.00378558 14.6062 0.106189 14.2 0.3C13.7791 0.495494 13.3773 0.729843 13 1C12.6639 1.1828 12.3599 1.41924 12.1 1.7C11.629 2.06191 11.2231 2.50156 10.9 3L4.4 1.1C4.2 1.1 4.09999 1 3.79999 1.1C3.61458 1.10377 3.43686 1.17486 3.29999 1.3L2.59999 2.1C2.39999 2.2 2.39999 2.3 2.39999 2.5C2.39999 2.7 2.49999 2.8 2.69999 2.9L8.09999 6.4C7.99999 6.6 7.39999 7.2 6.49999 8.3L3.2 7.8C3.02149 7.77211 2.839 7.78458 2.66594 7.83649C2.49289 7.88841 2.33367 7.97845 2.19999 8.1L1.09999 9.3C1.06202 9.33939 1.03333 9.38677 1.01603 9.43868C0.998723 9.49058 0.993246 9.5457 0.999995 9.6C0.999995 9.7 1.09999 9.8 1.29999 9.9L5.09999 11.2C5.26794 11.2448 5.42109 11.3331 5.54399 11.456C5.66689 11.5789 5.7552 11.7321 5.79999 11.9L7.09999 15.7C7.19999 15.9 7.29999 16 7.39999 16C7.45429 16.0067 7.50941 16.0013 7.56132 15.984C7.61322 15.9667 7.66061 15.938 7.69999 15.9L8.79999 14.8C8.94126 14.6801 9.04476 14.5219 9.098 14.3444C9.15124 14.1669 9.15193 13.9778 9.1 13.8L8.59999 10.5C8.69999 10.4 9.3 9.9 10.5 9L14 14.4C14.1139 14.5235 14.2495 14.6252 14.4 14.7C14.6 14.7 14.7 14.7 14.8 14.6L15.6 13.8C15.7251 13.6631 15.7962 13.4854 15.8 13.3V12.7L14 6.1C14.4968 5.73658 14.9649 5.33539 15.4 4.9C15.7691 4.51886 16.0732 4.07968 16.3 3.6C16.6029 3.0751 16.8063 2.49877 16.9 1.9C16.9821 1.64515 16.9977 1.37352 16.9452 1.11096C16.8927 0.848404 16.7738 0.603651 16.6 0.4Z" fill="white"/>
</svg>
