<svg width="16" height="16" viewBox="0 0 16 16" fill="none" xmlns="http://www.w3.org/2000/svg">
<g opacity="0.5">
<path fill-rule="evenodd" clip-rule="evenodd" d="M8 16C6.41775 16 4.87103 15.5308 3.55544 14.6518C2.23985 13.7727 1.21447 12.5233 0.608967 11.0615C0.00346625 9.59966 -0.15496 7.99113 0.153721 6.43928C0.462403 4.88743 1.22432 3.46197 2.34314 2.34315C3.46196 1.22433 4.88743 0.462403 6.43927 0.153721C7.99112 -0.15496 9.59966 0.00346625 11.0615 0.608967C12.5233 1.21447 13.7727 2.23985 14.6518 3.55544C15.5308 4.87103 16 6.41775 16 8C15.9937 10.1198 15.1488 12.1509 13.6499 13.6499C12.1509 15.1488 10.1198 15.9937 8 16ZM12 4L8.10001 5.8C7.10372 6.29629 6.29629 7.10372 5.80001 8.1L4 12L7.9 10.2C8.89629 9.70372 9.70372 8.89629 10.2 7.9L12 4Z" fill="white"/>
</g>
</svg>
