<svg width="17" height="17" viewBox="0 0 17 17" fill="none" xmlns="http://www.w3.org/2000/svg">
<g opacity="0.5">
<path fill-rule="evenodd" clip-rule="evenodd" d="M14.732 2.44493C14.3317 1.98609 13.855 1.62178 13.3294 1.37314C12.8038 1.1245 12.2398 0.99646 11.6702 0.99646C11.1006 0.99646 10.5366 1.1245 10.011 1.37314C9.48543 1.62178 9.00868 1.98609 8.60841 2.44493L8.00796 3.1247L7.40751 2.44493C6.59494 1.52442 5.49265 1.00705 4.34313 1.00662C3.19361 1.0062 2.09103 1.52276 1.27793 2.44266C0.464827 3.36257 0.00782188 4.61047 0.00744652 5.91183C0.00707116 7.2132 0.463356 8.46144 1.27592 9.38194L8.00196 16.9965L14.728 9.38194C15.1333 8.9288 15.4551 8.38908 15.6747 7.79406C15.8944 7.19904 16.0074 6.56058 16.0074 5.9157C16.0074 5.27082 15.8944 4.63236 15.6747 4.03735C15.4551 3.44233 15.1333 2.9026 14.728 2.44946" fill="white"/>
</g>
</svg>
