<svg width="16" height="16" viewBox="0 0 16 16" fill="none" xmlns="http://www.w3.org/2000/svg">
<path opacity="0.5" d="M0 16V14C0 11.8 3.6 9.99999 8 9.99999C12.4 9.99999 16 11.8 16 14V16H0ZM4 3.99999C4 3.20887 4.2346 2.4355 4.67412 1.7777C5.11365 1.11991 5.73836 0.607217 6.46927 0.304467C7.20017 0.00171617 8.00444 -0.0774743 8.78036 0.0768666C9.55628 0.231207 10.269 0.612153 10.8284 1.17156C11.3878 1.73097 11.7688 2.4437 11.9231 3.21963C12.0775 3.99555 11.9983 4.79982 11.6955 5.53072C11.3928 6.26163 10.8801 6.88633 10.2223 7.32586C9.56448 7.76539 8.79113 7.99999 8 7.99999C6.93913 7.99999 5.92172 7.57857 5.17157 6.82842C4.42143 6.07828 4 5.06086 4 3.99999Z" fill="white"/>
</svg>
