<svg width="102" height="34" viewBox="0 0 102 34" fill="none" xmlns="http://www.w3.org/2000/svg">
<mask id="mask0_15_3" style="mask-type:luminance" maskUnits="userSpaceOnUse" x="30" y="0" width="34" height="34">
<path d="M63.946 16.978L46.996 0.027916L30.0254 16.9985L46.9755 33.9485L63.946 16.978Z" fill="white"/>
</mask>
<g mask="url(#mask0_15_3)">
<path d="M63.118 16.9985C63.0266 16.4084 62.7691 15.8566 62.3756 15.4075C61.8942 14.9342 61.3149 14.5721 60.6785 14.3468C60.0247 14.1077 59.35 13.9302 58.6633 13.8165C58.1129 13.6539 57.5397 13.5822 56.9662 13.6044C56.0827 13.4886 55.186 13.5245 54.3146 13.7104L49.4355 4.80089C49.2234 4.58876 49.2234 4.37662 48.7991 4.16449C48.5985 3.97183 48.3346 3.85873 48.0567 3.84629L46.4657 3.95236C46.1475 3.84629 46.0414 3.95236 45.8293 4.16449C45.6171 4.37662 45.6171 4.58876 45.7232 4.90695L47.7385 14.3468C47.4203 14.4529 46.1475 14.4529 44.0261 14.665L41.0563 10.6345C40.8966 10.4156 40.6898 10.2352 40.4512 10.1067C40.2125 9.97824 39.9482 9.90489 39.6774 9.89206L37.2379 9.99812C37.1559 9.99966 37.0752 10.0195 37.0018 10.0562C36.9284 10.0929 36.8641 10.1455 36.8137 10.2103C36.7076 10.3163 36.7076 10.5285 36.8137 10.8467L39.4653 16.256C39.5959 16.4817 39.6647 16.7378 39.6647 16.9985C39.6647 17.2592 39.5959 17.5153 39.4653 17.7409L36.8137 23.1503C36.7076 23.4685 36.7076 23.6806 36.8137 23.7867C36.8641 23.8514 36.9284 23.9041 37.0018 23.9408C37.0752 23.9775 37.1559 23.9973 37.2379 23.9988H39.5714C39.8484 24.0214 40.126 23.9634 40.3706 23.8316C40.6153 23.6998 40.8166 23.5001 40.9502 23.2564L43.9201 19.2259C44.1322 19.2259 45.2989 19.3319 47.5263 19.6501L45.5111 29.09C45.5009 29.3419 45.5369 29.5935 45.6171 29.8325C45.8293 30.0446 45.9353 30.1507 46.1475 30.1507H47.8445C48.1224 30.1382 48.3863 30.0251 48.587 29.8325L49.2234 29.1961L54.3146 20.2865C55.227 20.428 56.1489 20.4989 57.0723 20.4987C57.8681 20.4859 58.6564 20.3426 59.4057 20.0744C60.2838 19.839 61.1108 19.4434 61.8452 18.9077C62.2026 18.7244 62.5072 18.4528 62.73 18.1187C62.9528 17.7845 63.0864 17.3989 63.118 16.9985Z" fill="#8B8B8B"/>
</g>
<path d="M0.5 17.5H31.5" stroke="#707070"/>
<path d="M70.5 17.5H101.5" stroke="#707070"/>
</svg>
