<svg width="18" height="18" viewBox="0 0 18 18" fill="none" xmlns="http://www.w3.org/2000/svg">
<path d="M3.40002 3.3999C4.10396 2.61818 4.9693 1.99871 5.9362 1.58432C6.9031 1.16993 7.94848 0.970531 9.00002 0.999902C10.0516 0.970531 11.0969 1.16993 12.0638 1.58432C13.0307 1.99871 13.8961 2.61818 14.6 3.3999C15.3817 4.10384 16.0012 4.96918 16.4156 5.93608C16.83 6.90298 17.0294 7.94836 17 8.9999C17.0294 10.0514 16.83 11.0968 16.4156 12.0637C16.0012 13.0306 15.3817 13.896 14.6 14.5999C13.8961 15.3816 13.0307 16.0011 12.0638 16.4155C11.0969 16.8299 10.0516 17.0293 9.00002 16.9999C7.94848 17.0293 6.9031 16.8299 5.9362 16.4155C4.9693 16.0011 4.10396 15.3816 3.40002 14.5999C1.89124 13.1239 1.02834 11.1104 1.00002 8.9999C0.970653 7.94836 1.17006 6.90298 1.58444 5.93608C1.99883 4.96918 2.6183 4.10384 3.40002 3.3999ZM12.6 12.5999L13.533 11.6669L10.2 8.3329L9.00002 2.9999H7.66702V8.9999C7.66214 9.17511 7.69539 9.34928 7.76445 9.51038C7.83352 9.67147 7.93675 9.81564 8.06702 9.9329C8.13905 10.0053 8.23286 10.052 8.33402 10.0659L12.6 12.5999Z" fill="white"/>
</svg>
