<svg width="32" height="36" viewBox="0 0 32 36" fill="none" xmlns="http://www.w3.org/2000/svg">
<path d="M26.3399 4.39201C26.1976 4.39201 26.0554 4.35645 25.9309 4.28532C22.5169 2.52496 19.5652 1.77814 16.0267 1.77814C12.5059 1.77814 9.16304 2.61387 6.12242 4.28532C5.69567 4.51648 5.16223 4.35645 4.91329 3.92969C4.68213 3.50294 4.84216 2.95171 5.26891 2.72056C8.57626 0.924633 12.2037 0 16.0267 0C19.8141 0 23.1215 0.835726 26.7489 2.70277C27.1934 2.93393 27.3534 3.46737 27.1223 3.89413C26.9622 4.21419 26.66 4.39201 26.3399 4.39201ZM0.894687 13.7272C0.716873 13.7272 0.539059 13.6739 0.379026 13.5672C-0.0299464 13.2827 -0.118853 12.7315 0.16565 12.3225C1.92601 9.83312 4.16647 7.87717 6.83368 6.508C12.417 3.62741 19.5652 3.60963 25.1663 6.49021C27.8335 7.85938 30.074 9.79756 31.8343 12.2692C32.1188 12.6604 32.0299 13.2294 31.621 13.5139C31.212 13.7984 30.6608 13.7095 30.3763 13.3005C28.7759 11.06 26.7489 9.29968 24.3484 8.07276C19.2451 5.45889 12.7193 5.45889 7.63384 8.09054C5.21557 9.33524 3.18849 11.1134 1.58816 13.3538C1.44591 13.6028 1.17919 13.7272 0.894687 13.7272ZM12.0081 35.1894C11.7769 35.1894 11.5458 35.1005 11.3857 34.9227C9.83874 33.3757 9.00301 32.38 7.81165 30.2284C6.58474 28.0413 5.94461 25.3741 5.94461 22.5113C5.94461 17.2302 10.4611 12.9271 16.0089 12.9271C21.5567 12.9271 26.0732 17.2302 26.0732 22.5113C26.0732 23.0091 25.682 23.4003 25.1841 23.4003C24.6862 23.4003 24.295 23.0091 24.295 22.5113C24.295 18.2082 20.5787 14.7052 16.0089 14.7052C11.4391 14.7052 7.72275 18.2082 7.72275 22.5113C7.72275 25.0718 8.29175 27.4367 9.37642 29.3571C10.5144 31.402 11.2968 32.2733 12.666 33.6602C13.0038 34.0158 13.0038 34.5671 12.666 34.9227C12.4704 35.1005 12.2392 35.1894 12.0081 35.1894ZM24.7573 31.8998C22.6413 31.8998 20.7743 31.3664 19.2451 30.3173C16.5957 28.5214 15.0131 25.6052 15.0131 22.5113C15.0131 22.0134 15.4043 21.6222 15.9022 21.6222C16.4001 21.6222 16.7913 22.0134 16.7913 22.5113C16.7913 25.0184 18.0715 27.3834 20.2409 28.8414C21.5033 29.695 22.9792 30.1039 24.7573 30.1039C25.1841 30.1039 25.8953 30.0506 26.6066 29.9261C27.0867 29.8372 27.549 30.1573 27.6379 30.6552C27.7268 31.1353 27.4068 31.5976 26.9089 31.6865C25.8953 31.8821 25.0063 31.8998 24.7573 31.8998ZM21.1833 35.5628C21.1122 35.5628 21.0232 35.545 20.9521 35.5273C18.1249 34.7449 16.2756 33.6958 14.3374 31.7932C11.848 29.3215 10.4789 26.032 10.4789 22.5113C10.4789 19.6307 12.9327 17.2835 15.9555 17.2835C18.9784 17.2835 21.4322 19.6307 21.4322 22.5113C21.4322 24.4139 23.0859 25.9609 25.1308 25.9609C27.1756 25.9609 28.8293 24.4139 28.8293 22.5113C28.8293 15.8077 23.0503 10.3666 15.9378 10.3666C10.8878 10.3666 6.26467 13.176 4.18425 17.5325C3.49077 18.9728 3.13514 20.662 3.13514 22.5113C3.13514 23.8982 3.25961 26.0853 4.3265 28.9304C4.50431 29.3927 4.27315 29.9083 3.81084 30.0684C3.34852 30.2462 2.83286 29.9972 2.67283 29.5527C1.80154 27.2233 1.37478 24.9118 1.37478 22.5113C1.37478 20.3775 1.78376 18.4393 2.58392 16.7501C4.94885 11.7891 10.1944 8.57064 15.9378 8.57064C24.0283 8.57064 30.6074 14.8119 30.6074 22.4935C30.6074 25.3741 28.1536 27.7212 25.1308 27.7212C22.1079 27.7212 19.6541 25.3741 19.6541 22.4935C19.6541 20.5909 18.0004 19.0439 15.9555 19.0439C13.9107 19.0439 12.257 20.5909 12.257 22.4935C12.257 25.5341 13.4306 28.3791 15.5821 30.5129C17.2714 32.1844 18.8895 33.109 21.3967 33.8025C21.8767 33.9269 22.1435 34.4248 22.019 34.8871C21.9301 35.2961 21.5567 35.5628 21.1833 35.5628Z" fill="white"/>
</svg>
