<svg width="32" height="32" viewBox="0 0 32 32" fill="none" xmlns="http://www.w3.org/2000/svg">
<path d="M28.1601 5.45506C27.8089 4.41905 26.8256 3.68155 25.6667 3.68155H21.2768V0.169647H10.7411V3.68155H6.35119C5.19226 3.68155 4.22648 4.41905 3.85773 5.45506L0.205353 15.9732V30.0208C0.205353 30.9866 0.995531 31.7768 1.96131 31.7768H3.71726C4.68303 31.7768 5.47321 30.9866 5.47321 30.0208V28.2649H26.5446V30.0208C26.5446 30.9866 27.3348 31.7768 28.3006 31.7768H30.0565C31.0223 31.7768 31.8125 30.9866 31.8125 30.0208V15.9732L28.1601 5.45506ZM6.35119 22.997C4.89375 22.997 3.71726 21.8205 3.71726 20.3631C3.71726 18.9057 4.89375 17.7292 6.35119 17.7292C7.80863 17.7292 8.98512 18.9057 8.98512 20.3631C8.98512 21.8205 7.80863 22.997 6.35119 22.997ZM25.6667 22.997C24.2092 22.997 23.0327 21.8205 23.0327 20.3631C23.0327 18.9057 24.2092 17.7292 25.6667 17.7292C27.1241 17.7292 28.3006 18.9057 28.3006 20.3631C28.3006 21.8205 27.1241 22.997 25.6667 22.997ZM3.71726 14.2173L6.35119 6.31548H25.6667L28.3006 14.2173H3.71726Z" fill="white"/>
</svg>
