<svg width="16" height="17" viewBox="0 0 16 17" fill="none" xmlns="http://www.w3.org/2000/svg">
<path fill-rule="evenodd" clip-rule="evenodd" d="M7.54697 10.048C7.91188 10.0485 8.27331 9.97703 8.61054 9.8376C8.94776 9.69816 9.25415 9.49354 9.51214 9.23546C9.77012 8.97738 9.97463 8.67092 10.1139 8.33365C10.2533 7.99637 10.3246 7.63492 10.324 7.27001C10.329 6.52274 10.0411 5.80323 9.52202 5.26564C9.00295 4.72806 8.29396 4.41517 7.54697 4.39401C7.18206 4.39335 6.8206 4.46472 6.48333 4.60403C6.14606 4.74334 5.83959 4.94785 5.58151 5.20584C5.32344 5.46383 5.11881 5.77022 4.97938 6.10744C4.83995 6.44466 4.76844 6.80609 4.76897 7.17101C4.78093 7.91341 5.0745 8.62354 5.59026 9.15768C6.10602 9.69182 6.80544 10.0101 7.54697 10.048ZM2.88497 2.50901C3.49719 1.89678 4.22401 1.41114 5.02392 1.07981C5.82382 0.748477 6.68116 0.577942 7.54697 0.577942C8.41279 0.577942 9.27012 0.748476 10.07 1.07981C10.8699 1.41114 11.5967 1.89678 12.209 2.50901C12.8212 3.12123 13.3068 3.84804 13.6382 4.64795C13.9695 5.44786 14.14 6.30519 14.14 7.17101C14.14 8.03682 13.9695 8.89415 13.6382 9.69406C13.3068 10.494 12.8212 11.2208 12.209 11.833L7.54697 16.495L2.88497 11.833C1.69085 10.5745 1.02515 8.90584 1.02515 7.17101C1.02515 5.43617 1.69085 3.76747 2.88497 2.50901Z" fill="white"/>
</svg>
