<svg width="16" height="16" viewBox="0 0 16 16" fill="none" xmlns="http://www.w3.org/2000/svg">
<path d="M8.154 3.07702L2.462 8.92302L0 16L7.077 13.692L12.769 8.00002L8.154 3.07702ZM15.385 2.61502L13.385 0.615019C13.2101 0.42127 12.9966 0.26638 12.7581 0.160366C12.5196 0.0543513 12.2615 -0.000427246 12.0005 -0.000427246C11.7395 -0.000427246 11.4814 0.0543513 11.2429 0.160366C11.0044 0.26638 10.7909 0.42127 10.616 0.615019L8.923 2.30802L13.538 7.07702L15.384 5.23102C15.5739 5.05297 15.7263 4.83869 15.8321 4.60082C15.9379 4.36295 15.995 4.10631 16 3.84602C15.956 3.37326 15.7366 2.93409 15.385 2.61502Z" fill="white"/>
</svg>
