<svg width="29" height="34" viewBox="0 0 29 34" fill="none" xmlns="http://www.w3.org/2000/svg">
<path d="M14.87 0.470947C7.10802 0.470947 0.822021 1.34895 0.822021 7.49495V24.1759C0.823874 25.8054 1.47199 27.3676 2.62419 28.5198C3.77639 29.672 5.33857 30.3201 6.96802 30.3219L4.33402 32.9559V33.8339H25.405V32.9559L22.771 30.3219C24.4013 30.3214 25.9648 29.6739 27.1181 28.5215C28.2714 27.3692 28.9202 25.8063 28.922 24.1759V7.49495C28.922 1.34895 22.631 0.470947 14.87 0.470947ZM6.97002 26.8099C6.44907 26.8099 5.93981 26.6555 5.50665 26.366C5.07349 26.0766 4.73588 25.6652 4.53652 25.1839C4.33716 24.7026 4.285 24.173 4.38663 23.6621C4.48827 23.1511 4.73913 22.6818 5.1075 22.3134C5.47587 21.9451 5.94521 21.6942 6.45615 21.5926C6.9671 21.4909 7.49671 21.5431 7.97801 21.7424C8.45931 21.9418 8.87068 22.2794 9.16011 22.7126C9.44954 23.1457 9.60402 23.655 9.60402 24.1759C9.60455 24.5222 9.53671 24.8651 9.4044 25.185C9.27209 25.505 9.07792 25.7956 8.83301 26.0403C8.5881 26.2851 8.29729 26.479 7.97725 26.6111C7.65721 26.7432 7.31424 26.8107 6.96802 26.8099H6.97002ZM13.114 16.2709H4.33402V7.49495H13.114V16.2709ZM22.772 26.8069C22.2511 26.8069 21.7418 26.6525 21.3086 26.363C20.8755 26.0736 20.5379 25.6622 20.3385 25.1809C20.1392 24.6996 20.087 24.17 20.1886 23.6591C20.2903 23.1481 20.5411 22.6788 20.9095 22.3104C21.2779 21.9421 21.7472 21.6912 22.2582 21.5896C22.7691 21.4879 23.2987 21.5401 23.78 21.7394C24.2613 21.9388 24.6727 22.2764 24.9621 22.7096C25.2515 23.1427 25.406 23.652 25.406 24.1729C25.4069 24.5193 25.3394 24.8625 25.2074 25.1827C25.0753 25.5029 24.8813 25.7939 24.6364 26.0389C24.3916 26.284 24.1008 26.4782 23.7806 26.6105C23.4605 26.7428 23.1174 26.8106 22.771 26.8099L22.772 26.8069ZM25.405 16.2709H16.622V7.49495H25.402L25.405 16.2709Z" fill="#FFFDFD"/>
</svg>
